<svg width="579.21494140625px" height="88.4249755859375px" xmlns="http://www.w3.org/2000/svg" viewBox="-39.60747070312499 30.78751220703125 579.21494140625 88.4249755859375" style="background: rgba(0, 0, 0, 0);" preserveAspectRatio="xMidYMid"><defs><filter id="editing-extrude-glow"><feFlood flood-color="#333333" result="flood-1"></feFlood><feMorphology operator="erode" radius="1" in="SourceAlpha" result="erode"></feMorphology><feComposite operator="in" in="flood-1" in2="erode" result="comp1"></feComposite><feConvolveMatrix order="3,3" divisor="1" in="comp1" result="convolve" kernelMatrix="0 0 0 1 1 1 0 0 0"></feConvolveMatrix><feOffset dx="-3" dy="0" in="convolve" result="extrude"></feOffset><feComposite operator="in" in="flood-1" in2="extrude" result="comp-extrude"></feComposite><feFlood flood-color="#000000" result="flood-2"></feFlood><feComposite operator="in" in="flood-2" in2="SourceAlpha" result="comp2"></feComposite><feMorphology operator="dilate" radius="1" in="comp2" result="dilate"></feMorphology><feOffset dx="-4.5" dy="0" in="dilate" result="offset"></feOffset><feGaussianBlur in="offset" stdDeviation="5.8" result="blur"></feGaussianBlur><feComponentTransfer in="blur" result="shadow"><feFuncA type="linear" slope="0.8" intercept="-0.2"></feFuncA></feComponentTransfer><feMerge><feMergeNode in="shadow"></feMergeNode><feMergeNode in="comp-extrude"></feMergeNode><feMergeNode in="SourceGraphic"></feMergeNode></feMerge></filter></defs><g filter="url(#editing-extrude-glow)"><g transform="translate(43.579994440078735, 94.06999969482422)"><path d="M7.79-4.10L18.28-4.10L18.28-4.10Q21.14-4.10 22.68-5.65L22.68-5.65L22.68-5.65Q24.22-7.19 24.22-10.05L24.22-10.05L24.22-18.66L24.22-18.66Q24.22-20.06 23.82-21.16L23.82-21.16L23.82-21.16Q23.42-22.26 22.65-23.03L22.65-23.03L22.65-23.03Q21.88-23.80 20.78-24.20L20.78-24.20L20.78-24.20Q19.68-24.60 18.28-24.60L18.28-24.60L7.79-24.60L7.79-4.10ZM18.28 0L3.68 0L3.68-28.71L18.28-28.71L18.28-28.71Q20.58-28.71 22.43-28.00L22.43-28.00L22.43-28.00Q24.28-27.29 25.59-25.98L25.59-25.98L25.59-25.98Q26.91-24.66 27.62-22.80L27.62-22.80L27.62-22.80Q28.33-20.94 28.33-18.66L28.33-18.66L28.33-10.05L28.33-10.05Q28.33-7.77 27.62-5.91L27.62-5.91L27.62-5.91Q26.91-4.04 25.59-2.73L25.59-2.73L25.59-2.73Q24.28-1.42 22.43-0.71L22.43-0.71L22.43-0.71Q20.58 0 18.28 0L18.28 0ZM52.93-17.38L52.93-3.94L52.93-3.94Q52.93-3.12 52.62-2.40L52.62-2.40L52.62-2.40Q52.31-1.68 51.78-1.15L51.78-1.15L51.78-1.15Q51.25-0.62 50.54-0.31L50.54-0.31L50.54-0.31Q49.83 0 49.01 0L49.01 0L38.42 0L38.42 0Q37.62 0 36.90-0.31L36.90-0.31L36.90-0.31Q36.18-0.62 35.64-1.15L35.64-1.15L35.64-1.15Q35.11-1.68 34.80-2.40L34.80-2.40L34.80-2.40Q34.49-3.12 34.49-3.94L34.49-3.94L34.49-17.38L34.49-17.38Q34.49-18.20 34.80-18.92L34.80-18.92L34.80-18.92Q35.11-19.64 35.64-20.17L35.64-20.17L35.64-20.17Q36.18-20.70 36.90-21.01L36.90-21.01L36.90-21.01Q37.62-21.32 38.42-21.32L38.42-21.32L49.01-21.32L49.01-21.32Q49.83-21.32 50.54-21.01L50.54-21.01L50.54-21.01Q51.25-20.70 51.78-20.17L51.78-20.17L51.78-20.17Q52.31-19.64 52.62-18.92L52.62-18.92L52.62-18.92Q52.93-18.20 52.93-17.38L52.93-17.38ZM49.01-17.38L38.42-17.38L38.42-3.94L49.01-3.94L49.01-17.38ZM68.03 0L63.92 0L57.04-21.32L61.02-21.32L66.06-5.25L70.77-21.32L74.79-21.32L79.50-5.25L84.54-21.32L88.53-21.32L81.64 0L77.54 0L72.77-15.66L68.03 0ZM111.49-17.38L111.49 0L107.54 0L107.54-17.38L96.55-17.38L96.55 0L92.63 0L92.63-21.32L96.55-21.32L96.55-17.56L96.55-17.56Q96.59-18.34 96.91-19.03L96.91-19.03L96.91-19.03Q97.23-19.72 97.77-20.23L97.77-20.23L97.77-20.23Q98.30-20.74 99.00-21.03L99.00-21.03L99.00-21.03Q99.70-21.32 100.50-21.32L100.50-21.32L107.54-21.32L107.54-21.32Q108.37-21.32 109.09-21.01L109.09-21.01L109.09-21.01Q109.81-20.70 110.34-20.17L110.34-20.17L110.34-20.17Q110.87-19.64 111.18-18.92L111.18-18.92L111.18-18.92Q111.49-18.20 111.49-17.38L111.49-17.38ZM118.06-29.53L121.98-29.53L121.98 0L118.06 0L118.06-29.53ZM146.98-17.38L146.98-3.94L146.98-3.94Q146.98-3.12 146.67-2.40L146.67-2.40L146.67-2.40Q146.36-1.68 145.83-1.15L145.83-1.15L145.83-1.15Q145.30-0.62 144.59-0.31L144.59-0.31L144.59-0.31Q143.88 0 143.06 0L143.06 0L132.47 0L132.47 0Q131.67 0 130.95-0.31L130.95-0.31L130.95-0.31Q130.23-0.62 129.70-1.15L129.70-1.15L129.70-1.15Q129.17-1.68 128.86-2.40L128.86-2.40L128.86-2.40Q128.55-3.12 128.55-3.94L128.55-3.94L128.55-17.38L128.55-17.38Q128.55-18.20 128.86-18.92L128.86-18.92L128.86-18.92Q129.17-19.64 129.70-20.17L129.70-20.17L129.70-20.17Q130.23-20.70 130.95-21.01L130.95-21.01L130.95-21.01Q131.67-21.32 132.47-21.32L132.47-21.32L143.06-21.32L143.06-21.32Q143.88-21.32 144.59-21.01L144.59-21.01L144.59-21.01Q145.30-20.70 145.83-20.17L145.83-20.17L145.83-20.17Q146.36-19.64 146.67-18.92L146.67-18.92L146.67-18.92Q146.98-18.20 146.98-17.38L146.98-17.38ZM143.06-17.38L132.47-17.38L132.47-3.94L143.06-3.94L143.06-17.38ZM153.55-3.94L153.55-9.31L153.55-9.31Q153.55-10.13 153.86-10.84L153.86-10.84L153.86-10.84Q154.17-11.55 154.70-12.09L154.70-12.09L154.70-12.09Q155.23-12.63 155.95-12.94L155.95-12.94L155.95-12.94Q156.67-13.25 157.47-13.25L157.47-13.25L167.64-13.25L167.64-17.38L154.77-17.38L154.77-21.32L167.64-21.32L167.64-21.32Q168.46-21.32 169.19-21.01L169.19-21.01L169.19-21.01Q169.91-20.70 170.44-20.17L170.44-20.17L170.44-20.17Q170.97-19.64 171.28-18.92L171.28-18.92L171.28-18.92Q171.59-18.20 171.59-17.38L171.59-17.38L171.59 0L167.64 0L167.64-3.60L167.64-3.60Q167.58-2.86 167.24-2.20L167.24-2.20L167.24-2.20Q166.90-1.54 166.37-1.05L166.37-1.05L166.37-1.05Q165.84-0.56 165.16-0.28L165.16-0.28L165.16-0.28Q164.48 0 163.72 0L163.72 0L157.47 0L157.47 0Q156.67 0 155.95-0.31L155.95-0.31L155.95-0.31Q155.23-0.62 154.70-1.15L154.70-1.15L154.70-1.15Q154.17-1.68 153.86-2.40L153.86-2.40L153.86-2.40Q153.55-3.12 153.55-3.94L153.55-3.94ZM157.47-9.31L157.47-3.94L167.64-3.94L167.64-9.31L157.47-9.31ZM178.15-3.94L178.15-17.38L178.15-17.38Q178.15-18.20 178.46-18.92L178.46-18.92L178.46-18.92Q178.77-19.64 179.30-20.17L179.30-20.17L179.30-20.17Q179.84-20.70 180.56-21.01L180.56-21.01L180.56-21.01Q181.28-21.32 182.08-21.32L182.08-21.32L193.07-21.32L193.07-29.53L197.01-29.53L197.01 0L193.07 0L193.07-3.60L193.07-3.60Q193.01-2.86 192.67-2.20L192.67-2.20L192.67-2.20Q192.33-1.54 191.80-1.05L191.80-1.05L191.80-1.05Q191.27-0.56 190.59-0.28L190.59-0.28L190.59-0.28Q189.91 0 189.14 0L189.14 0L182.08 0L182.08 0Q181.28 0 180.56-0.31L180.56-0.31L180.56-0.31Q179.84-0.62 179.30-1.15L179.30-1.15L179.30-1.15Q178.77-1.68 178.46-2.40L178.46-2.40L178.46-2.40Q178.15-3.12 178.15-3.94L178.15-3.94ZM182.08-17.38L182.08-3.94L193.07-3.94L193.07-17.38L182.08-17.38ZM234.31-12.29L220.38-12.29L220.38-12.29Q219.53-12.29 218.78-12.62L218.78-12.62L218.78-12.62Q218.03-12.95 217.47-13.50L217.47-13.50L217.47-13.50Q216.91-14.05 216.59-14.80L216.59-14.80L216.59-14.80Q216.27-15.56 216.27-16.40L216.27-16.40L216.27-24.60L216.27-24.60Q216.27-25.44 216.59-26.20L216.59-26.20L216.59-26.20Q216.91-26.95 217.47-27.50L217.47-27.50L217.47-27.50Q218.03-28.05 218.78-28.38L218.78-28.38L218.78-28.38Q219.53-28.71 220.38-28.71L220.38-28.71L234.31-28.71L234.31-28.71Q235.15-28.71 235.90-28.38L235.90-28.38L235.90-28.38Q236.65-28.05 237.21-27.50L237.21-27.50L237.21-27.50Q237.77-26.95 238.09-26.20L238.09-26.20L238.09-26.20Q238.41-25.44 238.41-24.60L238.41-24.60L238.41-20.90L234.31-20.90L234.31-24.60L220.38-24.60L220.38-16.40L234.31-16.40L234.31-16.40Q235.15-16.40 235.90-16.08L235.90-16.08L235.90-16.08Q236.65-15.76 237.21-15.19L237.21-15.19L237.21-15.19Q237.77-14.63 238.09-13.88L238.09-13.88L238.09-13.88Q238.41-13.13 238.41-12.29L238.41-12.29L238.41-4.10L238.41-4.10Q238.41-3.26 238.09-2.51L238.09-2.51L238.09-2.51Q237.77-1.76 237.21-1.20L237.21-1.20L237.21-1.20Q236.65-0.64 235.90-0.32L235.90-0.32L235.90-0.32Q235.15 0 234.31 0L234.31 0L219.97 0L219.97 0Q219.13 0 218.38-0.32L218.38-0.32L218.38-0.32Q217.63-0.64 217.07-1.20L217.07-1.20L217.07-1.20Q216.51-1.76 216.19-2.51L216.19-2.51L216.19-2.51Q215.87-3.26 215.87-4.10L215.87-4.10L215.87-7.79L219.97-7.79L219.97-4.10L234.31-4.10L234.31-12.29ZM264.26-17.38L264.26 0L260.31 0L260.31-17.38L249.32-17.38L249.32 0L245.40 0L245.40-21.32L249.32-21.32L249.32-17.56L249.32-17.56Q249.36-18.34 249.68-19.03L249.68-19.03L249.68-19.03Q250.00-19.72 250.53-20.23L250.53-20.23L250.53-20.23Q251.06-20.74 251.77-21.03L251.77-21.03L251.77-21.03Q252.47-21.32 253.27-21.32L253.27-21.32L260.31-21.32L260.31-21.32Q261.13-21.32 261.86-21.01L261.86-21.01L261.86-21.01Q262.58-20.70 263.11-20.17L263.11-20.17L263.11-20.17Q263.64-19.64 263.95-18.92L263.95-18.92L263.95-18.92Q264.26-18.20 264.26-17.38L264.26-17.38ZM270.82-3.94L270.82-9.31L270.82-9.31Q270.82-10.13 271.13-10.84L271.13-10.84L271.13-10.84Q271.44-11.55 271.98-12.09L271.98-12.09L271.98-12.09Q272.51-12.63 273.23-12.94L273.23-12.94L273.23-12.94Q273.95-13.25 274.75-13.25L274.75-13.25L284.92-13.25L284.92-17.38L272.05-17.38L272.05-21.32L284.92-21.32L284.92-21.32Q285.74-21.32 286.46-21.01L286.46-21.01L286.46-21.01Q287.18-20.70 287.71-20.17L287.71-20.17L287.71-20.17Q288.24-19.64 288.55-18.92L288.55-18.92L288.55-18.92Q288.86-18.20 288.86-17.38L288.86-17.38L288.86 0L284.92 0L284.92-3.60L284.92-3.60Q284.86-2.86 284.52-2.20L284.52-2.20L284.52-2.20Q284.18-1.54 283.65-1.05L283.65-1.05L283.65-1.05Q283.12-0.56 282.44-0.28L282.44-0.28L282.44-0.28Q281.75 0 280.99 0L280.99 0L274.75 0L274.75 0Q273.95 0 273.23-0.31L273.23-0.31L273.23-0.31Q272.51-0.62 271.98-1.15L271.98-1.15L271.98-1.15Q271.44-1.68 271.13-2.40L271.13-2.40L271.13-2.40Q270.82-3.12 270.82-3.94L270.82-3.94ZM274.75-9.31L274.75-3.94L284.92-3.94L284.92-9.31L274.75-9.31ZM314.29-17.38L314.29-3.94L314.29-3.94Q314.29-3.12 313.98-2.40L313.98-2.40L313.98-2.40Q313.67-1.68 313.14-1.15L313.14-1.15L313.14-1.15Q312.60-0.62 311.88-0.31L311.88-0.31L311.88-0.31Q311.16 0 310.34 0L310.34 0L299.35 0L299.35 8.61L295.43 8.61L295.43-21.32L299.35-21.32L299.35-17.72L299.35-17.72Q299.41-18.48 299.75-19.13L299.75-19.13L299.75-19.13Q300.09-19.78 300.61-20.27L300.61-20.27L300.61-20.27Q301.13-20.76 301.82-21.04L301.82-21.04L301.82-21.04Q302.52-21.32 303.30-21.32L303.30-21.32L310.34-21.32L310.34-21.32Q311.16-21.32 311.88-21.01L311.88-21.01L311.88-21.01Q312.60-20.70 313.14-20.17L313.14-20.17L313.14-20.17Q313.67-19.64 313.98-18.92L313.98-18.92L313.98-18.92Q314.29-18.20 314.29-17.38L314.29-17.38ZM299.35-3.94L310.34-3.94L310.34-17.38L299.35-17.38L299.35-3.94ZM320.43-3.94L333.73-3.94L333.73-8.89L324.38-8.89L324.38-8.89Q323.56-8.89 322.83-9.20L322.83-9.20L322.83-9.20Q322.11-9.51 321.58-10.04L321.58-10.04L321.58-10.04Q321.05-10.57 320.74-11.29L320.74-11.29L320.74-11.29Q320.43-12.01 320.43-12.83L320.43-12.83L320.43-17.38L320.43-17.38Q320.43-18.20 320.74-18.92L320.74-18.92L320.74-18.92Q321.05-19.64 321.58-20.17L321.58-20.17L321.58-20.17Q322.11-20.70 322.83-21.01L322.83-21.01L322.83-21.01Q323.56-21.32 324.38-21.32L324.38-21.32L336.85-21.32L336.85-17.38L324.38-17.38L324.38-12.83L333.73-12.83L333.73-12.83Q334.55-12.83 335.26-12.52L335.26-12.52L335.26-12.52Q335.97-12.21 336.51-11.68L336.51-11.68L336.51-11.68Q337.05-11.15 337.36-10.43L337.36-10.43L337.36-10.43Q337.67-9.71 337.67-8.89L337.67-8.89L337.67-3.94L337.67-3.94Q337.67-3.12 337.36-2.40L337.36-2.40L337.36-2.40Q337.05-1.68 336.51-1.15L336.51-1.15L336.51-1.15Q335.97-0.62 335.26-0.31L335.26-0.31L335.26-0.31Q334.55 0 333.73 0L333.73 0L320.43 0L320.43-3.94ZM362.67-17.38L362.67 0L358.73 0L358.73-17.38L347.74-17.38L347.74 0L343.82 0L343.82-29.53L347.74-29.53L347.74-17.56L347.74-17.56Q347.78-18.34 348.10-19.03L348.10-19.03L348.10-19.03Q348.42-19.72 348.95-20.23L348.95-20.23L348.95-20.23Q349.48-20.74 350.18-21.03L350.18-21.03L350.18-21.03Q350.88-21.32 351.68-21.32L351.68-21.32L358.73-21.32L358.73-21.32Q359.55-21.32 360.27-21.01L360.27-21.01L360.27-21.01Q360.99-20.70 361.52-20.17L361.52-20.17L361.52-20.17Q362.05-19.64 362.36-18.92L362.36-18.92L362.36-18.92Q362.67-18.20 362.67-17.38L362.67-17.38ZM387.68-17.38L387.68-3.94L387.68-3.94Q387.68-3.12 387.37-2.40L387.37-2.40L387.37-2.40Q387.06-1.68 386.53-1.15L386.53-1.15L386.53-1.15Q386.00-0.62 385.29-0.31L385.29-0.31L385.29-0.31Q384.58 0 383.75 0L383.75 0L373.16 0L373.16 0Q372.36 0 371.64-0.31L371.64-0.31L371.64-0.31Q370.92-0.62 370.39-1.15L370.39-1.15L370.39-1.15Q369.86-1.68 369.55-2.40L369.55-2.40L369.55-2.40Q369.24-3.12 369.24-3.94L369.24-3.94L369.24-17.38L369.24-17.38Q369.24-18.20 369.55-18.92L369.55-18.92L369.55-18.92Q369.86-19.64 370.39-20.17L370.39-20.17L370.39-20.17Q370.92-20.70 371.64-21.01L371.64-21.01L371.64-21.01Q372.36-21.32 373.16-21.32L373.16-21.32L383.75-21.32L383.75-21.32Q384.58-21.32 385.29-21.01L385.29-21.01L385.29-21.01Q386.00-20.70 386.53-20.17L386.53-20.17L386.53-20.17Q387.06-19.64 387.37-18.92L387.37-18.92L387.37-18.92Q387.68-18.20 387.68-17.38L387.68-17.38ZM383.75-17.38L373.16-17.38L373.16-3.94L383.75-3.94L383.75-17.38ZM393.00-17.38L393.00-21.32L398.21-21.32L398.21-27.89L402.15-27.89L402.15-21.32L409.16-21.32L409.16-17.38L402.15-17.38L402.15-3.94L409.16-3.94L409.16 0L402.15 0L402.15 0Q401.35 0 400.63-0.31L400.63-0.31L400.63-0.31Q399.91-0.62 399.37-1.15L399.37-1.15L399.37-1.15Q398.83-1.68 398.52-2.40L398.52-2.40L398.52-2.40Q398.21-3.12 398.21-3.94L398.21-3.94L398.21-17.38L393.00-17.38Z" fill="#eb6c6c"></path></g></g><style>text {
  font-size: 64px;
  font-family: Arial Black;
  dominant-baseline: central;
  text-anchor: middle;
}</style></svg>